<svg height="512" width="512" xmlns="http://www.w3.org/2000/svg"><path d="M388 81H284c-41.35 0-75 33.65-75 75v281c0 41.35 33.65 75 75 75h104c41.35 0 75-33.65 75-75V156c0-41.35-33.65-75-75-75z" fill="#6c6c6c"/><path d="M388 81h-52v431h52c41.35 0 75-33.65 75-75V156c0-41.35-33.65-75-75-75z" fill="#404040"/><path d="M388 111H284c-24.81 0-45 20.19-45 45v197h194V156c0-24.81-20.19-45-45-45z" fill="#27d8f6"/><path d="M388 111h-52v242h97V156c0-24.81-20.19-45-45-45z" fill="#3aaaff"/><circle cx="336" cy="432" fill="#ffda2d" r="15"/><path d="M351 432c0-8.284-6.716-15-15-15v30c8.284 0 15-6.716 15-15z" fill="#fdbf00"/><path d="M299.929 213.563L288 173.798V45c0-24.813-20.187-45-45-45H94C69.187 0 49 20.187 49 45v141c0 24.813 20.187 45 45 45h134.698l26.597 16.623c4.933 3.083 10.438 4.61 15.923 4.61 6.403 0 12.777-2.082 18.175-6.202 10.024-7.648 14.159-20.393 10.536-32.468z" fill="#ffda2d"/><path d="M288 173.798V45c0-24.813-20.187-45-45-45h-75v231h60.698l26.597 16.623c4.933 3.083 10.438 4.61 15.923 4.61 6.403 0 12.777-2.082 18.175-6.202 10.023-7.648 14.158-20.394 10.535-32.469z" fill="#fdbf00"/><path d="M185 137h-32c-8.284 0-15 6.716-15 15s6.716 15 15 15h32c8.284 0 15-6.716 15-15s-6.716-15-15-15z" fill="#6c6c6c"/><path d="M185 137h-17v30h17c8.284 0 15-6.716 15-15s-6.716-15-15-15z" fill="#404040"/><path d="M209 65h-80c-8.284 0-15 6.716-15 15s6.716 15 15 15h80c8.284 0 15-6.716 15-15s-6.716-15-15-15z" fill="#6c6c6c"/><path d="M209 65h-41v30h41c8.284 0 15-6.716 15-15s-6.716-15-15-15z" fill="#404040"/></svg>